<?xml version="1.0" encoding="UTF-8" standalone="no"?>
<!-- Created with Inkscape (http://www.inkscape.org/) -->

<svg
   xmlns:dc="http://purl.org/dc/elements/1.1/"
   xmlns:cc="http://creativecommons.org/ns#"
   xmlns:rdf="http://www.w3.org/1999/02/22-rdf-syntax-ns#"
   xmlns:svg="http://www.w3.org/2000/svg"
   xmlns="http://www.w3.org/2000/svg"
   xmlns:sodipodi="http://sodipodi.sourceforge.net/DTD/sodipodi-0.dtd"
   xmlns:inkscape="http://www.inkscape.org/namespaces/inkscape"
   width="240px"
   height="240px"
   viewBox="0 0 240 240"
   version="1.1"
   id="SVGRoot"
   inkscape:version="0.92.5 (2060ec1f9f, 2020-04-08)"
   sodipodi:docname="costrade.svg">
  <defs
     id="defs904" />
  <sodipodi:namedview
     id="base"
     pagecolor="#ffffff"
     bordercolor="#666666"
     borderopacity="1.0"
     inkscape:pageopacity="0.0"
     inkscape:pageshadow="2"
     inkscape:zoom="3.959798"
     inkscape:cx="239.76645"
     inkscape:cy="136.18751"
     inkscape:document-units="px"
     inkscape:current-layer="layer1"
     showgrid="false"
     inkscape:window-width="3440"
     inkscape:window-height="1376"
     inkscape:window-x="0"
     inkscape:window-y="27"
     inkscape:window-maximized="1" />
  <metadata
     id="metadata907">
    <rdf:RDF>
      <cc:Work
         rdf:about="">
        <dc:format>image/svg+xml</dc:format>
        <dc:type
           rdf:resource="http://purl.org/dc/dcmitype/StillImage" />
        <dc:title></dc:title>
      </cc:Work>
    </rdf:RDF>
  </metadata>
  <g
     inkscape:label="Layer 1"
     inkscape:groupmode="layer"
     id="layer1">
    <text
       xml:space="preserve"
       style="font-style:normal;font-variant:normal;font-weight:bold;font-stretch:normal;font-size:289.0173645px;line-height:24;font-family:sans-serif;-inkscape-font-specification:'sans-serif Bold';letter-spacing:0px;word-spacing:0px;fill:#000000;fill-opacity:1;stroke:none;stroke-width:3.01059771"
       x="-2.9534075"
       y="223.91014"
       id="text919"
       transform="scale(0.97750915,1.0230083)"><tspan
         sodipodi:role="line"
         id="tspan917"
         x="-2.9534075"
         y="223.91014"
         style="stroke-width:3.01059771">C</tspan></text>
    <path
       style="fill:#8e1056;fill-opacity:0;stroke-width:0.25253814"
       d="M 113.68871,232.90235 C 83.994634,231.13335 60.319396,221.56997 42.465806,204.13259 30.873487,192.81051 22.924718,180.0445 17.665144,164.30184 11.405727,145.56651 9.640331,121.25833 12.918091,98.938501 17.330257,68.893963 31.434271,45.104656 54.428709,28.922346 68.660511,18.906732 86.484539,12.616797 106.45156,10.563959 c 20.71849,-2.1300969 40.79516,-0.07789 58.71512,6.001757 5.95623,2.020751 9.98532,3.684613 15.84677,6.544111 l 5.24017,2.556407 v 22.173928 22.173927 l -2.75084,-1.889059 c -5.96127,-4.093737 -14.11309,-8.574551 -20.3564,-11.189311 -7.9197,-3.316846 -15.95717,-5.425691 -24.87501,-6.526616 -4.9431,-0.610235 -17.00248,-0.625153 -21.09554,-0.02609 -6.67609,0.97711 -12.2187,2.599592 -17.416526,5.09831 -7.085351,3.406101 -12.223373,7.321669 -17.198746,13.10677 -8.773172,10.20098 -13.946759,23.127195 -15.887255,39.694317 -0.556662,4.75256 -0.776613,16.8079 -0.398553,21.84455 1.52126,20.26682 7.717894,35.67934 18.837342,46.85301 9.304793,9.35017 20.610868,14.44289 35.063918,15.79422 4.56363,0.42669 14.56529,0.16638 19.57709,-0.50953 15.07062,-2.03247 28.72772,-7.46571 43.27986,-17.21813 1.63159,-1.09345 3.02371,-1.98809 3.09359,-1.98809 0.0699,0 0.12707,9.91679 0.12707,22.03731 v 22.03731 l -2.20971,1.17674 c -14.48301,7.71267 -32.12491,12.80738 -49.68688,14.34882 -4.22339,0.37069 -16.17201,0.5116 -20.66832,0.24373 z"
       id="path926"
       inkscape:connector-curvature="0" />
    <path
       style="fill:#8e1056;fill-opacity:0;stroke-width:0.25253814"
       d="M 113.68871,232.90235 C 83.994634,231.13335 60.319396,221.56997 42.465806,204.13259 30.873487,192.81051 22.924718,180.0445 17.665144,164.30184 11.405727,145.56651 9.640331,121.25833 12.918091,98.938501 17.330257,68.893963 31.434271,45.104656 54.428709,28.922346 68.660511,18.906732 86.484539,12.616797 106.45156,10.563959 c 20.71849,-2.1300969 40.79516,-0.07789 58.71512,6.001757 5.95623,2.020751 9.98532,3.684613 15.84677,6.544111 l 5.24017,2.556407 v 22.173928 22.173927 l -2.75084,-1.889059 c -5.96127,-4.093737 -14.11309,-8.574551 -20.3564,-11.189311 -7.9197,-3.316846 -15.95717,-5.425691 -24.87501,-6.526616 -4.9431,-0.610235 -17.00248,-0.625153 -21.09554,-0.02609 -6.67609,0.97711 -12.2187,2.599592 -17.416526,5.09831 -7.085351,3.406101 -12.223373,7.321669 -17.198746,13.10677 -8.773172,10.20098 -13.946759,23.127195 -15.887255,39.694317 -0.556662,4.75256 -0.776613,16.8079 -0.398553,21.84455 1.52126,20.26682 7.717894,35.67934 18.837342,46.85301 9.304793,9.35017 20.610868,14.44289 35.063918,15.79422 4.56363,0.42669 14.56529,0.16638 19.57709,-0.50953 15.07062,-2.03247 28.72772,-7.46571 43.27986,-17.21813 1.63159,-1.09345 3.02371,-1.98809 3.09359,-1.98809 0.0699,0 0.12707,9.91679 0.12707,22.03731 v 22.03731 l -2.20971,1.17674 c -14.48301,7.71267 -32.12491,12.80738 -49.68688,14.34882 -4.22339,0.37069 -16.17201,0.5116 -20.66832,0.24373 z"
       id="path928"
       inkscape:connector-curvature="0" />
    <path
       style="opacity:1;vector-effect:none;fill:#8e1056;fill-opacity:0;stroke-width:0.06377551;stroke-linecap:butt;stroke-linejoin:miter;stroke-miterlimit:4;stroke-dasharray:none;stroke-dashoffset:0;stroke-opacity:1"
       d="M 113.68871,232.90235 C 83.994634,231.13335 60.319396,221.56997 42.465806,204.13259 30.873487,192.81051 22.924718,180.0445 17.665144,164.30184 11.405727,145.56651 9.640331,121.25833 12.918091,98.938501 17.330257,68.893963 31.434271,45.104656 54.428709,28.922346 68.660511,18.906732 86.484539,12.616797 106.45156,10.563959 c 20.71849,-2.1300969 40.79516,-0.07789 58.71512,6.001757 5.95623,2.020751 9.98532,3.684613 15.84677,6.544111 l 5.24017,2.556407 v 22.173928 22.173927 l -2.75084,-1.889059 c -5.96127,-4.093737 -14.11309,-8.574551 -20.3564,-11.189311 -7.9197,-3.316846 -15.95717,-5.425691 -24.87501,-6.526616 -4.9431,-0.610235 -17.00248,-0.625153 -21.09554,-0.02609 -6.67609,0.97711 -12.2187,2.599592 -17.416526,5.09831 -7.085351,3.406101 -12.223373,7.321669 -17.198746,13.10677 -8.773172,10.20098 -13.946759,23.127195 -15.887255,39.694317 -0.556662,4.75256 -0.776613,16.8079 -0.398553,21.84455 1.52126,20.26682 7.717894,35.67934 18.837342,46.85301 9.304793,9.35017 20.610868,14.44289 35.063918,15.79422 4.56363,0.42669 14.56529,0.16638 19.57709,-0.50953 15.07062,-2.03247 28.72772,-7.46571 43.27986,-17.21813 1.63159,-1.09345 3.02371,-1.98809 3.09359,-1.98809 0.0699,0 0.12707,9.91679 0.12707,22.03731 v 22.03731 l -2.20971,1.17674 c -14.48301,7.71267 -32.12491,12.80738 -49.68688,14.34882 -4.22339,0.37069 -16.17201,0.5116 -20.66832,0.24373 z"
       id="path930"
       inkscape:connector-curvature="0" />
    <path
       style="opacity:1;vector-effect:none;fill:#8e1056;fill-opacity:0;stroke-width:0.06377551;stroke-linecap:butt;stroke-linejoin:miter;stroke-miterlimit:4;stroke-dasharray:none;stroke-dashoffset:0;stroke-opacity:1"
       d="M 113.68871,232.90235 C 83.994634,231.13335 60.319396,221.56997 42.465806,204.13259 30.873487,192.81051 22.924718,180.0445 17.665144,164.30184 11.405727,145.56651 9.640331,121.25833 12.918091,98.938501 17.330257,68.893963 31.434271,45.104656 54.428709,28.922346 68.660511,18.906732 86.484539,12.616797 106.45156,10.563959 c 20.71849,-2.1300969 40.79516,-0.07789 58.71512,6.001757 5.95623,2.020751 9.98532,3.684613 15.84677,6.544111 l 5.24017,2.556407 v 22.173928 22.173927 l -2.75084,-1.889059 c -5.96127,-4.093737 -14.11309,-8.574551 -20.3564,-11.189311 -7.9197,-3.316846 -15.95717,-5.425691 -24.87501,-6.526616 -4.9431,-0.610235 -17.00248,-0.625153 -21.09554,-0.02609 -6.67609,0.97711 -12.2187,2.599592 -17.416526,5.09831 -7.085351,3.406101 -12.223373,7.321669 -17.198746,13.10677 -8.773172,10.20098 -13.946759,23.127195 -15.887255,39.694317 -0.556662,4.75256 -0.776613,16.8079 -0.398553,21.84455 1.52126,20.26682 7.717894,35.67934 18.837342,46.85301 9.304793,9.35017 20.610868,14.44289 35.063918,15.79422 4.56363,0.42669 14.56529,0.16638 19.57709,-0.50953 15.07062,-2.03247 28.72772,-7.46571 43.27986,-17.21813 1.63159,-1.09345 3.02371,-1.98809 3.09359,-1.98809 0.0699,0 0.12707,9.91679 0.12707,22.03731 v 22.03731 l -2.20971,1.17674 c -14.48301,7.71267 -32.12491,12.80738 -49.68688,14.34882 -4.22339,0.37069 -16.17201,0.5116 -20.66832,0.24373 z"
       id="path932"
       inkscape:connector-curvature="0" />
    <path
       style="opacity:1;vector-effect:none;fill:#8e1056;fill-opacity:0;stroke-width:0.06377551;stroke-linecap:butt;stroke-linejoin:miter;stroke-miterlimit:4;stroke-dasharray:none;stroke-dashoffset:0;stroke-opacity:1"
       d="M 113.68871,232.90235 C 83.994634,231.13335 60.319396,221.56997 42.465806,204.13259 30.873487,192.81051 22.924718,180.0445 17.665144,164.30184 11.405727,145.56651 9.640331,121.25833 12.918091,98.938501 17.330257,68.893963 31.434271,45.104656 54.428709,28.922346 68.660511,18.906732 86.484539,12.616797 106.45156,10.563959 c 20.71849,-2.1300969 40.79516,-0.07789 58.71512,6.001757 5.95623,2.020751 9.98532,3.684613 15.84677,6.544111 l 5.24017,2.556407 v 22.173928 22.173927 l -2.75084,-1.889059 c -5.96127,-4.093737 -14.11309,-8.574551 -20.3564,-11.189311 -7.9197,-3.316846 -15.95717,-5.425691 -24.87501,-6.526616 -4.9431,-0.610235 -17.00248,-0.625153 -21.09554,-0.02609 -6.67609,0.97711 -12.2187,2.599592 -17.416526,5.09831 -7.085351,3.406101 -12.223373,7.321669 -17.198746,13.10677 -8.773172,10.20098 -13.946759,23.127195 -15.887255,39.694317 -0.556662,4.75256 -0.776613,16.8079 -0.398553,21.84455 1.52126,20.26682 7.717894,35.67934 18.837342,46.85301 9.304793,9.35017 20.610868,14.44289 35.063918,15.79422 4.56363,0.42669 14.56529,0.16638 19.57709,-0.50953 15.07062,-2.03247 28.72772,-7.46571 43.27986,-17.21813 1.63159,-1.09345 3.02371,-1.98809 3.09359,-1.98809 0.0699,0 0.12707,9.91679 0.12707,22.03731 v 22.03731 l -2.20971,1.17674 c -14.48301,7.71267 -32.12491,12.80738 -49.68688,14.34882 -4.22339,0.37069 -16.17201,0.5116 -20.66832,0.24373 z"
       id="path934"
       inkscape:connector-curvature="0" />
    <path
       style="opacity:1;vector-effect:none;fill:#00d400;fill-opacity:1;stroke-width:0.06377551;stroke-linecap:butt;stroke-linejoin:miter;stroke-miterlimit:4;stroke-dasharray:none;stroke-dashoffset:0;stroke-opacity:1"
       d="M 113.68871,232.90235 C 83.994634,231.13335 60.319396,221.56997 42.465806,204.13259 30.873487,192.81051 22.924718,180.0445 17.665144,164.30184 11.405727,145.56651 9.640331,121.25833 12.918091,98.938501 17.330257,68.893963 31.434271,45.104656 54.428709,28.922346 68.660511,18.906732 86.484539,12.616797 106.45156,10.563959 c 20.71849,-2.1300969 40.79516,-0.07789 58.71512,6.001757 5.95623,2.020751 9.98532,3.684613 15.84677,6.544111 l 5.24017,2.556407 v 22.173928 22.173927 l -2.75084,-1.889059 c -5.96127,-4.093737 -14.11309,-8.574551 -20.3564,-11.189311 -7.9197,-3.316846 -15.95717,-5.425691 -24.87501,-6.526616 -4.9431,-0.610235 -17.00248,-0.625153 -21.09554,-0.02609 -6.67609,0.97711 -12.2187,2.599592 -17.416526,5.09831 -7.085351,3.406101 -12.223373,7.321669 -17.198746,13.10677 -8.773172,10.20098 -13.946759,23.127195 -15.887255,39.694317 -0.556662,4.75256 -0.776613,16.8079 -0.398553,21.84455 1.52126,20.26682 7.717894,35.67934 18.837342,46.85301 9.304793,9.35017 20.610868,14.44289 35.063918,15.79422 4.56363,0.42669 14.56529,0.16638 19.57709,-0.50953 15.07062,-2.03247 28.72772,-7.46571 43.27986,-17.21813 1.63159,-1.09345 3.02371,-1.98809 3.09359,-1.98809 0.0699,0 0.12707,9.91679 0.12707,22.03731 v 22.03731 l -2.20971,1.17674 c -14.48301,7.71267 -32.12491,12.80738 -49.68688,14.34882 -4.22339,0.37069 -16.17201,0.5116 -20.66832,0.24373 z"
       id="path936"
       inkscape:connector-curvature="0" />
  </g>
</svg>
